<?xml version="1.0" encoding="iso-8859-1"?>
<!-- Generator: Adobe Illustrator 21.0.0, SVG Export Plug-In . SVG Version: 6.00 Build 0)  -->
<svg version="1.1" id="cruise-ship-marine-travel" xmlns="http://www.w3.org/2000/svg" xmlns:xlink="http://www.w3.org/1999/xlink"
	 x="0px" y="0px" viewBox="0 0 64 64" style="enable-background:new 0 0 64 64;" xml:space="preserve">
<path d="M48.594,62c-1.022,0-1.478-0.337-2.108-0.804C45.766,60.663,44.869,60,43.188,60c-1.681,0-2.576,0.663-3.296,1.196
	C39.262,61.663,38.806,62,37.786,62c-1.019,0-1.474-0.337-2.104-0.804C34.963,60.663,34.068,60,32.388,60
	c-1.68,0-2.576,0.663-3.295,1.196C28.463,61.663,28.008,62,26.988,62s-1.475-0.337-2.104-0.804C24.164,60.663,23.269,60,21.589,60
	s-2.575,0.663-3.295,1.196C17.664,61.663,17.209,62,16.189,62c-1.02,0-1.474-0.337-2.104-0.804C13.366,60.663,12.471,60,10.791,60
	c-1.679,0-2.575,0.663-3.294,1.196C6.868,61.663,6.413,62,5.394,62c-1.019,0-1.473-0.337-2.102-0.804C2.573,60.663,1.679,60,0,60v2
	c1.018,0,1.472,0.337,2.101,0.803C2.82,63.336,3.715,64,5.394,64s2.575-0.663,3.294-1.196C9.317,62.337,9.771,62,10.791,62
	c1.02,0,1.475,0.337,2.104,0.804C13.614,63.337,14.51,64,16.189,64s2.575-0.663,3.295-1.196C20.114,62.337,20.569,62,21.589,62
	c1.02,0,1.474,0.337,2.104,0.804C24.412,63.337,25.308,64,26.988,64s2.576-0.663,3.295-1.196C30.913,62.337,31.368,62,32.388,62
	c1.019,0,1.474,0.337,2.104,0.804C35.211,63.337,36.106,64,37.786,64c1.681,0,2.576-0.663,3.296-1.196
	C41.712,62.337,42.167,62,43.188,62c1.022,0,1.478,0.337,2.108,0.804C46.017,63.337,46.913,64,48.594,64s2.577-0.663,3.297-1.196
	C52.522,62.337,52.978,62,54,62v-2c-1.681,0-2.578,0.663-3.298,1.196C50.071,61.663,49.616,62,48.594,62z"/>
<rect x="16" y="41" width="2" height="2"/>
<rect x="20" y="41" width="2" height="2"/>
<rect x="24" y="41" width="2" height="2"/>
<rect x="28" y="41" width="2" height="2"/>
<rect x="32" y="41" width="2" height="2"/>
<rect x="36" y="41" width="2" height="2"/>
<rect x="40" y="41" width="2" height="2"/>
<rect x="44" y="41" width="2" height="2"/>
<rect x="48" y="41" width="2" height="2"/>
<rect x="52" y="41" width="2" height="2"/>
<rect x="56" y="41" width="2" height="2"/>
<rect x="28" y="37" width="2" height="2"/>
<rect x="32" y="37" width="2" height="2"/>
<rect x="36" y="37" width="2" height="2"/>
<rect x="40" y="37" width="2" height="2"/>
<rect x="44" y="37" width="2" height="2"/>
<rect x="48" y="37" width="2" height="2"/>
<rect x="52" y="37" width="2" height="2"/>
<rect x="56" y="37" width="2" height="2"/>
<path d="M56,7h5c1.654,0,3-1.346,3-3V0h-2v4c0,0.551-0.449,1-1,1h-5c-1.654,0-3,1.346-3,3v2c-0.552,0-1,0.448-1,1v7h-2v-7
	c0-0.552-0.448-1-1-1h-3V5c0-0.551,0.449-1,1-1h8c1.654,0,3-1.346,3-3V0h-2v1c0,0.551-0.449,1-1,1h-8c-1.654,0-3,1.346-3,3v5h-1
	c-0.552,0-1,0.448-1,1v7h-2v-7c0-0.552-0.448-1-1-1V6c0-0.551,0.449-1,1-1c1.654,0,3-1.346,3-3V0h-2v2c0,0.551-0.449,1-1,1
	c-1.654,0-3,1.346-3,3v4h-4c-0.552,0-1,0.448-1,1v7c-0.552,0-1,0.448-1,1v7v4H4c-0.362,0-0.695,0.195-0.872,0.511
	c-0.177,0.315-0.17,0.702,0.019,1.011l14.002,22.924C16.673,54.775,16.216,55,15.394,55c-1.019,0-1.473-0.337-2.102-0.804
	C12.573,53.663,11.679,53,10,53v2c1.018,0,1.472,0.337,2.101,0.803C12.82,56.336,13.715,57,15.394,57s2.575-0.663,3.294-1.196
	c0.131-0.098,0.254-0.185,0.377-0.27c0.049-0.034,0.104-0.066,0.157-0.099c0.085-0.054,0.173-0.101,0.262-0.146
	c0.058-0.029,0.117-0.058,0.18-0.084c0.093-0.038,0.195-0.067,0.299-0.095c0.068-0.018,0.131-0.04,0.206-0.054
	C20.354,55.022,20.554,55,20.791,55c1.02,0,1.475,0.337,2.104,0.804C23.614,56.337,24.51,57,26.189,57s2.575-0.663,3.295-1.196
	C30.114,55.337,30.569,55,31.589,55c1.02,0,1.474,0.337,2.104,0.804C34.412,56.337,35.308,57,36.988,57s2.576-0.663,3.295-1.196
	C40.913,55.337,41.368,55,42.388,55c1.019,0,1.474,0.337,2.104,0.804C45.211,56.337,46.106,57,47.786,57
	c1.681,0,2.576-0.663,3.296-1.196C51.712,55.337,52.167,55,53.188,55c1.022,0,1.478,0.337,2.108,0.804
	c0.38,0.281,0.813,0.596,1.381,0.834c0.002,0.001,0.004,0.002,0.006,0.003c0.001,0.001,0.003,0,0.004,0.001
	C57.194,56.851,57.806,57,58.594,57c1.681,0,2.577-0.663,3.297-1.196C62.522,55.337,62.978,55,64,55v-2
	c-1.681,0-2.578,0.663-3.298,1.196C60.071,54.663,59.616,55,58.594,55c-0.121,0-0.212-0.019-0.319-0.028l5.697-23.738
	c0.072-0.298,0.003-0.612-0.187-0.853C63.596,30.14,63.306,30,63,30h-2v-4v-7c0-0.552-0.448-1-1-1v-7c0-0.552-0.448-1-1-1h-4V8
	C55,7.449,55.449,7,56,7z M59,25H33v-5h6h4h6h4h6V25z M44,12h4v6h-4V12z M34,12h4v6h-4V12z M49.892,54.196
	C49.262,54.663,48.806,55,47.786,55c-1.019,0-1.474-0.337-2.104-0.804C44.963,53.663,44.068,53,42.388,53
	c-1.68,0-2.576,0.663-3.295,1.196C38.463,54.663,38.008,55,36.988,55s-1.475-0.337-2.104-0.804C34.164,53.663,33.269,53,31.589,53
	s-2.575,0.663-3.295,1.196C27.664,54.663,27.209,55,26.189,55c-1.02,0-1.474-0.337-2.104-0.804C23.366,53.663,22.471,53,20.791,53
	c-0.207,0-0.402,0.01-0.586,0.029c-0.064,0.006-0.119,0.019-0.18,0.027c-0.116,0.016-0.233,0.031-0.34,0.053
	c-0.075,0.016-0.141,0.037-0.212,0.055c-0.083,0.022-0.17,0.041-0.248,0.067c-0.082,0.026-0.156,0.057-0.233,0.087
	c-0.05,0.019-0.105,0.036-0.153,0.057L15.556,48h42.336l-1.474,6.143c-0.239-0.176-0.501-0.361-0.802-0.531
	c-0.019-0.011-0.037-0.022-0.056-0.033c-0.088-0.048-0.182-0.093-0.277-0.138c-0.034-0.016-0.065-0.033-0.1-0.048
	c-0.09-0.039-0.187-0.074-0.284-0.109c-0.045-0.016-0.087-0.035-0.134-0.05c-0.097-0.031-0.203-0.057-0.308-0.083
	c-0.053-0.013-0.103-0.029-0.158-0.041c-0.115-0.024-0.24-0.04-0.364-0.057c-0.054-0.007-0.103-0.018-0.159-0.024
	C53.59,53.01,53.395,53,53.188,53C51.507,53,50.612,53.663,49.892,54.196z M58.372,46H14.334L5.783,32H32h28h1.731L58.372,46z
	 M33,30v-3h26v3H33z M58,12v6h-4v-6H58z"/>
<path d="M7.293,17.293L6,18.586l-1.293-1.293l-1.414,1.414l2,2C5.488,20.902,5.744,21,6,21s0.512-0.098,0.707-0.293l2-2
	L7.293,17.293z"/>
<path d="M13,21c0.256,0,0.512-0.098,0.707-0.293l2-2l-1.414-1.414L13,18.586l-1.293-1.293l-1.414,1.414l2,2
	C12.488,20.902,12.744,21,13,21z"/>
<path d="M20,21c0.256,0,0.512-0.098,0.707-0.293l2-2l-1.414-1.414L20,18.586l-1.293-1.293l-1.414,1.414l2,2
	C19.488,20.902,19.744,21,20,21z"/>
<path d="M9,26c0.256,0,0.512-0.098,0.707-0.293l2-2l-1.414-1.414L9,23.586l-1.293-1.293l-1.414,1.414l2,2
	C8.488,25.902,8.744,26,9,26z"/>
<path d="M16,26c0.256,0,0.512-0.098,0.707-0.293l2-2l-1.414-1.414L16,23.586l-1.293-1.293l-1.414,1.414l2,2
	C15.488,25.902,15.744,26,16,26z"/>
<path d="M3,14h23c1.654,0,3-1.346,3-3s-1.346-3-3-3h-3c-0.551,0-1-0.449-1-1s0.449-1,1-1h10c1.654,0,3-1.346,3-3s-1.346-3-3-3H13
	c-1.654,0-3,1.346-3,3s1.346,3,3,3h2c0.551,0,1,0.449,1,1s-0.449,1-1,1H3c-1.654,0-3,1.346-3,3S1.346,14,3,14z M3,10h12
	c1.654,0,3-1.346,3-3s-1.346-3-3-3h-2c-0.551,0-1-0.449-1-1s0.449-1,1-1h20c0.551,0,1,0.449,1,1s-0.449,1-1,1H23
	c-1.654,0-3,1.346-3,3s1.346,3,3,3h3c0.551,0,1,0.449,1,1s-0.449,1-1,1H3c-0.551,0-1-0.449-1-1S2.449,10,3,10z"/>
</svg>
